<svg xmlns="http://www.w3.org/2000/svg" xmlns:xlink="http://www.w3.org/1999/xlink" width="1920" zoomAndPan="magnify" viewBox="0 0 1440 809.999993" height="1080" preserveAspectRatio="xMidYMid meet" version="1.0"><defs><clipPath id="c98c439b8a"><path d="M 546 342.75 L 984 342.75 L 984 467.25 L 546 467.25 Z M 546 342.75 " clip-rule="nonzero"/></clipPath><clipPath id="1e88caf3a4"><path d="M 456 342.75 L 905 342.75 L 905 467.25 L 456 467.25 Z M 456 342.75 " clip-rule="nonzero"/></clipPath><clipPath id="9ab4de797a"><path d="M 456 342.75 L 759 342.75 L 759 405 L 456 405 Z M 456 342.75 " clip-rule="nonzero"/></clipPath></defs><g clip-path="url(#c98c439b8a)"><path fill="#fcdc24" d="M 983.886719 342.710938 L 599.753906 342.710938 L 546.53125 420.71875 C 701.394531 379.792969 860.683594 376.808594 983.886719 467.171875 Z M 983.886719 342.710938 " fill-opacity="1" fill-rule="evenodd"/></g><g clip-path="url(#1e88caf3a4)"><path fill="#3d6575" d="M 456.050781 342.710938 L 904.453125 342.710938 C 766.550781 345.175781 599.539062 379.578125 456.050781 467.171875 Z M 456.050781 342.710938 " fill-opacity="1" fill-rule="evenodd"/></g><g clip-path="url(#9ab4de797a)"><path fill="#3d6575" d="M 456.050781 342.710938 L 758.613281 342.710938 C 636.9375 352.59375 577.148438 361.96875 456.050781 404.941406 Z M 456.050781 342.710938 " fill-opacity="1" fill-rule="evenodd"/></g></svg>