<svg xmlns="http://www.w3.org/2000/svg" xmlns:xlink="http://www.w3.org/1999/xlink" width="500" zoomAndPan="magnify" viewBox="0 0 375 374.999991" height="500" preserveAspectRatio="xMidYMid meet" version="1.0"><defs><g/><clipPath id="d5d9001a19"><path d="M 56.488281 151.464844 L 318.238281 151.464844 L 318.238281 223.464844 L 56.488281 223.464844 Z M 56.488281 151.464844 " clip-rule="nonzero"/></clipPath><clipPath id="261bdf0f63"><path d="M 63.558594 158.238281 L 187.308594 158.238281 L 187.308594 216.738281 L 63.558594 216.738281 Z M 63.558594 158.238281 " clip-rule="nonzero"/></clipPath></defs><g clip-path="url(#d5d9001a19)"><path stroke-linecap="butt" transform="matrix(0.750202, 0, 0, 0.749268, 56.489269, 151.465449)" fill="none" stroke-linejoin="miter" d="M -0.00131637 -0.000808127 L 348.904932 -0.000808127 L 348.904932 96.092952 L -0.00131637 96.092952 L -0.00131637 -0.000808127 " stroke="#000000" stroke-width="6" stroke-opacity="1" stroke-miterlimit="4"/></g><g clip-path="url(#261bdf0f63)"><path fill="#000000" d="M 63.5625 158.238281 L 187.308594 158.238281 L 187.308594 216.738281 L 63.5625 216.738281 L 63.5625 158.238281 " fill-opacity="1" fill-rule="nonzero"/></g><g fill="#ffffff" fill-opacity="1"><g transform="translate(100.778632, 197.368259)"><g><path d="M 6.910156 0 L 9.210938 0 L 15.109375 -15.925781 L 18.371094 -7.164062 L 21.039062 0 L 23.339844 0 L 29.746094 -19.660156 L 27.160156 -19.660156 L 22.105469 -3.933594 L 16.289062 -19.660156 L 13.960938 -19.660156 L 8.144531 -3.960938 L 5.84375 -11.179688 L 3.117188 -19.660156 L 0.535156 -19.660156 Z M 6.910156 0 "/></g></g></g><g fill="#ffffff" fill-opacity="1"><g transform="translate(133.181598, 197.368259)"><g><path d="M 2.863281 0 L 15.109375 0 L 15.109375 -2.304688 L 5.335938 -2.304688 L 5.335938 -8.875 L 14.101562 -8.875 L 14.101562 -11.152344 L 5.335938 -11.152344 L 5.335938 -17.359375 L 14.800781 -17.359375 L 14.800781 -19.660156 L 2.863281 -19.660156 Z M 2.863281 0 "/></g></g></g><g fill="#000000" fill-opacity="1"><g transform="translate(208.386855, 196.769512)"><g><path d="M 2.078125 0 L 12.160156 0 C 16.148438 0 18.929688 -2.246094 18.929688 -5.476562 C 18.929688 -7.554688 17.808594 -9.242188 15.953125 -10.054688 C 17.46875 -10.925781 18.339844 -12.5 18.339844 -14.378906 C 18.339844 -17.609375 15.757812 -19.660156 11.65625 -19.660156 L 2.078125 -19.660156 Z M 7.640625 -4.214844 L 7.640625 -7.890625 L 11.066406 -7.890625 C 12.414062 -7.890625 13.171875 -7.21875 13.171875 -6.066406 C 13.171875 -4.886719 12.414062 -4.214844 11.066406 -4.214844 Z M 7.640625 -11.9375 L 7.640625 -15.476562 L 10.589844 -15.476562 C 11.910156 -15.476562 12.640625 -14.828125 12.640625 -13.707031 C 12.640625 -12.554688 11.910156 -11.9375 10.589844 -11.9375 Z M 7.640625 -11.9375 "/></g></g></g><g fill="#000000" fill-opacity="1"><g transform="translate(228.130623, 196.769512)"><g><path d="M 10.53125 0.421875 C 15.839844 0.421875 19.128906 -2.808594 19.128906 -8.089844 L 19.128906 -19.660156 L 13.480469 -19.660156 L 13.480469 -8.453125 C 13.480469 -6.121094 12.5 -4.886719 10.53125 -4.886719 C 8.566406 -4.886719 7.582031 -6.121094 7.582031 -8.453125 L 7.582031 -19.660156 L 1.910156 -19.660156 L 1.910156 -8.089844 C 1.910156 -2.808594 5.222656 0.421875 10.53125 0.421875 Z M 10.53125 0.421875 "/></g></g></g><g fill="#000000" fill-opacity="1"><g transform="translate(249.19439, 196.769512)"><g><path d="M 2.078125 0 L 7.75 0 L 7.75 -19.660156 L 2.078125 -19.660156 Z M 2.078125 0 "/></g></g></g><g fill="#000000" fill-opacity="1"><g transform="translate(259.02415, 196.769512)"><g><path d="M 2.078125 0 L 15.785156 0 L 15.785156 -5.253906 L 7.75 -5.253906 L 7.75 -19.660156 L 2.078125 -19.660156 Z M 2.078125 0 "/></g></g></g><g fill="#000000" fill-opacity="1"><g transform="translate(275.510053, 196.769512)"><g><path d="M 2.078125 0 L 10.421875 0 C 16.769531 0 20.980469 -3.902344 20.980469 -9.832031 C 20.980469 -15.730469 16.769531 -19.660156 10.421875 -19.660156 L 2.078125 -19.660156 Z M 7.75 -5.082031 L 7.75 -14.578125 L 10.25 -14.578125 C 13.257812 -14.578125 15.195312 -12.722656 15.195312 -9.832031 C 15.195312 -6.9375 13.257812 -5.082031 10.25 -5.082031 Z M 7.75 -5.082031 "/></g></g></g></svg>