<svg xmlns="http://www.w3.org/2000/svg" xmlns:xlink="http://www.w3.org/1999/xlink" width="1920" zoomAndPan="magnify" viewBox="0 0 1440 809.999993" height="1080" preserveAspectRatio="xMidYMid meet" version="1.0"><defs><clipPath id="db4d19d063"><path d="M 456 372.570312 L 636 372.570312 L 636 437 L 456 437 Z M 456 372.570312 " clip-rule="nonzero"/></clipPath></defs><g clip-path="url(#db4d19d063)"><path fill="#135a26" d="M 602.785156 387.917969 L 592.964844 372.960938 L 456 372.960938 L 456 436.570312 L 635.097656 436.570312 Z M 602.785156 387.917969 " fill-opacity="1" fill-rule="nonzero"/></g><path fill="#1c8638" d="M 650.832031 400.765625 L 642.277344 387.917969 L 606.585938 387.917969 L 622.742188 412.351562 L 638.792969 436.675781 L 674.488281 436.675781 Z M 650.832031 400.765625 " fill-opacity="1" fill-rule="nonzero"/><path fill="#25b34b" d="M 689.480469 410.980469 L 682.722656 400.660156 L 654.632812 400.660156 L 668.363281 421.40625 L 678.289062 436.464844 L 706.378906 436.464844 Z M 689.480469 410.980469 " fill-opacity="1" fill-rule="nonzero"/><path fill="#51c26f" d="M 693.28125 410.980469 L 710.179688 436.570312 L 984 436.570312 L 984 410.980469 Z M 693.28125 410.980469 " fill-opacity="1" fill-rule="nonzero"/></svg>